<svg id="Layer_1" data-name="Layer 1" xmlns="http://www.w3.org/2000/svg" viewBox="0 0 398 614.56"><defs><style>.cls-1{fill:#fff6aa;opacity:0.53;}.cls-10,.cls-2,.cls-23,.cls-24,.cls-25{fill:#e5e5e5;}.cls-2{stroke:gray;stroke-width:0.5px;}.cls-18,.cls-2,.cls-21{stroke-miterlimit:10;}.cls-3{fill:#d3d3d3;}.cls-4{fill:#2e2e2e;}.cls-5{fill:#3a3a3a;}.cls-6{fill:#4d4a5a;}.cls-7{fill:#bdbac0;}.cls-8{fill:#9fa8ce;}.cls-9{fill:#e4dfbb;}.cls-11{fill:#c64848;}.cls-12{fill:#d8c774;}.cls-13{fill:#4da27a;}.cls-14{fill:#4d4d4d;}.cls-15{font-size:8px;fill:#6c6a7b;font-family:Daikon-Light, Daikon;font-weight:300;}.cls-16{fill:#4f4b70;}.cls-17{fill:#ffb24d;}.cls-18{fill:#3d3954;stroke:#3d3954;stroke-width:3.95px;}.cls-19{fill:#cb8252;}.cls-20{fill:#d1d4d1;}.cls-21{fill:#ecf0f1;stroke:#666;stroke-width:0.05px;}.cls-22{fill:#f0c419;}.cls-23{font-size:6px;}.cls-23,.cls-24,.cls-25{font-family:MyriadPro-Regular, Myriad Pro;}.cls-24,.cls-25{font-size:9px;}.cls-25{letter-spacing:0.07em;}.cls-26{letter-spacing:0.07em;}.cls-27{letter-spacing:0.07em;}</style></defs><polygon id="Light" class="cls-1" points="395 611.01 6 611.01 155.91 210.5 257.74 210.5 395 611.01"/><ellipse class="cls-2" cx="339.5" cy="601.31" rx="1.5" ry="0.5"/><rect class="cls-2" x="83.5" y="385.06" width="304" height="197" rx="7"/><rect class="cls-3" x="185.5" y="603.36" width="98" height="4"/><circle class="cls-4" cx="235.5" cy="567.06" r="6"/><path class="cls-5" d="M89.5,384.56h292a6,6,0,0,1,6,6v159a0,0,0,0,1,0,0H83.5a0,0,0,0,1,0,0v-159A6,6,0,0,1,89.5,384.56Z"/><rect class="cls-6" x="93.5" y="393.06" width="284" height="148"/><polygon class="cls-7" points="263.5 603.41 207.5 603.41 211.5 582.31 259.5 582.31 263.5 603.41"/><rect class="cls-8" x="235" y="393.56" width="142" height="8"/><rect class="cls-9" x="94" y="393.31" width="142" height="147.5"/><rect class="cls-10" x="130" y="414.56" width="84" height="111"/><circle class="cls-11" cx="242" cy="397.56" r="2"/><circle class="cls-12" cx="249" cy="397.56" r="2"/><circle class="cls-13" cx="256" cy="397.56" r="2"/><rect class="cls-8" x="129.55" y="414.63" width="84.45" height="7.94"/><circle class="cls-11" cx="136.55" cy="418.69" r="2"/><circle class="cls-12" cx="143.55" cy="418.69" r="2"/><circle class="cls-13" cx="150.55" cy="418.69" r="2"/><rect class="cls-14" x="134" y="431.56" width="35" height="2" rx="0.5"/><rect class="cls-14" x="134" y="438.56" width="40" height="2" rx="0.5"/><rect class="cls-14" x="134" y="445.56" width="35" height="2" rx="0.5"/><text class="cls-15" transform="translate(244.83 415.99)">14</text><text class="cls-15" transform="translate(245.97 430.99)">15</text><text class="cls-15" transform="translate(245.79 445.99)">16</text><text class="cls-15" transform="translate(246.27 460.99)">17</text><text class="cls-15" transform="translate(245.68 475.99)">18</text><text class="cls-15" transform="translate(245.83 490.99)">19</text><text class="cls-15" transform="translate(245.07 505.99)">20</text><text class="cls-15" transform="translate(245.86 520.99)">21</text><text class="cls-15" transform="translate(245.52 535.99)">22</text><rect class="cls-5" y="607.56" width="398" height="7" rx="3.5"/><path class="cls-2" d="M334,601.31h11a6,6,0,0,1,6,6v0a0,0,0,0,1,0,0H328a0,0,0,0,1,0,0v0A6,6,0,0,1,334,601.31Z"/><path class="cls-16" d="M330,174" transform="translate(-301.33 0.01)"/><path class="cls-16" d="M360,173" transform="translate(-301.33 0.01)"/><path class="cls-16" d="M438.9-6.5" transform="translate(-301.33 0.01)"/><path class="cls-16" d="M419,216" transform="translate(-301.33 0.01)"/><path class="cls-16" d="M404,233" transform="translate(-301.33 0.01)"/><circle class="cls-17" cx="203.67" cy="214.01" r="15"/><path class="cls-16" d="M505.7,24.81c-.67.82-.67,1.35-.67,50.79v50l-1.33.48a7.39,7.39,0,0,0-3.82,3.71,19.88,19.88,0,0,0-.76,4.35c-.56,5.9-2.12,8.1-8.53,12.05-13.15,8.1-24.18,20-32.28,35a134.8,134.8,0,0,0-9.07,22.5c-1.36,4.92-1.43,5.41-1,6.63a4.84,4.84,0,0,0,1.33,1.88c1.46.89,20.32,2.56,40,3.5,10.66.52,32.61.28,44.33-.45,15.78-1,29.43-2.36,30.62-3.09a3.71,3.71,0,0,0,1.26-2c.34-1.22.27-1.83-.36-4.19a108,108,0,0,0-21.65-42.28A82.35,82.35,0,0,0,523.13,146c-6.08-3.7-7.64-6-8.2-11.8a19.17,19.17,0,0,0-.77-4.35,7.33,7.33,0,0,0-3.81-3.71l-1.33-.48v-50c0-49.44,0-50-.67-50.79a1.49,1.49,0,0,0-2.65,0Z" transform="translate(-301.33 0.01)"/><line class="cls-18" x1="205.67" y1="127.02" x2="205.67"/><path class="cls-19" d="M330.6,607.5h19.8a1.71,1.71,0,0,0,1.66-1.61l3-35a1.73,1.73,0,0,0-1.67-1.92H327.64a1.73,1.73,0,0,0-1.67,1.92l3,35A1.71,1.71,0,0,0,330.6,607.5Z" transform="translate(-301.33 0.01)"/><rect class="cls-20" x="26.67" y="565.01" width="25" height="4" rx="1.05"/><path class="cls-21" d="M355.79,568H325.23l0,0-1.2,2.9,0,0H357l0,0Z" transform="translate(-301.33 0.01)"/><path class="cls-19" d="M357.23,580.88" transform="translate(-301.33 0.01)"/><path class="cls-22" d="M352.46,598H328.54a1.16,1.16,0,0,1-1.15-1l-1.76-16.7a1.16,1.16,0,0,1,1.15-1.27h27.44a1.16,1.16,0,0,1,1.15,1.27L353.61,597A1.16,1.16,0,0,1,352.46,598Z" transform="translate(-301.33 0.01)"/><rect class="cls-5" x="101.57" y="401.93" width="16" height="14.08" rx="2"/><text class="cls-23" transform="translate(104.37 409.07) scale(1.14 1)">&gt;_</text><text x="-301.33" y="0.01"/><g id="cmd"><rect class="cls-5" x="280.67" y="436.01" width="74" height="70"/><text class="cls-24" transform="translate(287.13 447.48)">1</text><rect class="cls-8" x="281.04" y="428.34" width="73.63" height="7.94"/><circle class="cls-11" cx="288.04" cy="432.4" r="2"/><circle class="cls-12" cx="295.04" cy="432.4" r="2"/><circle class="cls-13" cx="302.04" cy="432.4" r="2"/></g><g id="Layer_3" data-name="Layer 3"><text class="cls-24" transform="translate(295.64 447.62)">&lt;</text><text class="cls-24" transform="translate(303.12 447.61)">h</text><text class="cls-24" transform="translate(309.31 447.61)">t</text><text class="cls-24" transform="translate(313.31 447.61)">m</text><text class="cls-24" transform="translate(322.31 447.61)">l</text><text class="cls-24" transform="translate(325.31 447.63)">&gt;</text><text class="cls-24" transform="translate(287.49 461.61)">2</text><text class="cls-24" transform="translate(287.49 474.61)">3</text><text class="cls-25" transform="translate(296.15 474.41)">&lt;/<tspan class="cls-26" x="9.71" y="0">h</tspan><tspan class="cls-27" x="15.3" y="0">tml&gt;</tspan></text></g></svg>